<mxfile host="app.diagrams.net" modified="2023-06-20T14:05:36.315Z" agent="Mozilla/5.0 (Windows NT 10.0; Win64; x64) AppleWebKit/537.36 (KHTML, like Gecko) Chrome/114.0.0.0 Safari/537.36" etag="59nBz0GDA8HClxU5ajp8" version="21.5.0" type="device">
  <diagram name="Page-1" id="2YBvvXClWsGukQMizWep">
    <mxGraphModel dx="794" dy="477" grid="1" gridSize="10" guides="1" tooltips="1" connect="1" arrows="1" fold="1" page="1" pageScale="1" pageWidth="850" pageHeight="1100" math="0" shadow="0">
      <root>
        <mxCell id="0" />
        <mxCell id="1" parent="0" />
        <mxCell id="aM9ryv3xv72pqoxQDRHE-1" value="Auction.js buy__keyword_tableConstrucotr&lt;br&gt;" style="shape=umlLifeline;perimeter=lifelinePerimeter;whiteSpace=wrap;html=1;container=0;dropTarget=0;collapsible=0;recursiveResize=0;outlineConnect=0;portConstraint=eastwest;newEdgeStyle={&quot;edgeStyle&quot;:&quot;elbowEdgeStyle&quot;,&quot;elbow&quot;:&quot;vertical&quot;,&quot;curved&quot;:0,&quot;rounded&quot;:0};" parent="1" vertex="1">
          <mxGeometry x="140" y="120" width="180" height="480" as="geometry" />
        </mxCell>
        <mxCell id="aM9ryv3xv72pqoxQDRHE-2" value="" style="html=1;points=[];perimeter=orthogonalPerimeter;outlineConnect=0;targetShapes=umlLifeline;portConstraint=eastwest;newEdgeStyle={&quot;edgeStyle&quot;:&quot;elbowEdgeStyle&quot;,&quot;elbow&quot;:&quot;vertical&quot;,&quot;curved&quot;:0,&quot;rounded&quot;:0};" parent="aM9ryv3xv72pqoxQDRHE-1" vertex="1">
          <mxGeometry x="82" y="70" width="10" height="90" as="geometry" />
        </mxCell>
        <mxCell id="0FgD7S2pJrIeSMjC2WOr-1" value="" style="html=1;points=[];perimeter=orthogonalPerimeter;outlineConnect=0;targetShapes=umlLifeline;portConstraint=eastwest;newEdgeStyle={&quot;edgeStyle&quot;:&quot;elbowEdgeStyle&quot;,&quot;elbow&quot;:&quot;vertical&quot;,&quot;curved&quot;:0,&quot;rounded&quot;:0};" parent="aM9ryv3xv72pqoxQDRHE-1" vertex="1">
          <mxGeometry x="87" y="100" width="10" height="40" as="geometry" />
        </mxCell>
        <mxCell id="0FgD7S2pJrIeSMjC2WOr-2" value="Click on&lt;br&gt;&quot;submit&quot;" style="html=1;align=left;spacingLeft=2;endArrow=block;rounded=0;edgeStyle=orthogonalEdgeStyle;curved=0;rounded=0;" parent="aM9ryv3xv72pqoxQDRHE-1" target="0FgD7S2pJrIeSMjC2WOr-1" edge="1">
          <mxGeometry relative="1" as="geometry">
            <mxPoint x="91" y="80" as="sourcePoint" />
            <Array as="points">
              <mxPoint x="121" y="110" />
            </Array>
          </mxGeometry>
        </mxCell>
        <mxCell id="0FgD7S2pJrIeSMjC2WOr-40" value="" style="html=1;points=[];perimeter=orthogonalPerimeter;outlineConnect=0;targetShapes=umlLifeline;portConstraint=eastwest;newEdgeStyle={&quot;edgeStyle&quot;:&quot;elbowEdgeStyle&quot;,&quot;elbow&quot;:&quot;vertical&quot;,&quot;curved&quot;:0,&quot;rounded&quot;:0};" parent="aM9ryv3xv72pqoxQDRHE-1" vertex="1">
          <mxGeometry x="87" y="360" width="10" height="100" as="geometry" />
        </mxCell>
        <mxCell id="0FgD7S2pJrIeSMjC2WOr-41" value="showTable()" style="html=1;align=left;spacingLeft=2;endArrow=block;rounded=0;edgeStyle=orthogonalEdgeStyle;curved=0;rounded=0;" parent="aM9ryv3xv72pqoxQDRHE-1" target="0FgD7S2pJrIeSMjC2WOr-40" edge="1">
          <mxGeometry relative="1" as="geometry">
            <mxPoint x="92" y="400" as="sourcePoint" />
            <Array as="points">
              <mxPoint x="122" y="430" />
            </Array>
          </mxGeometry>
        </mxCell>
        <mxCell id="DSFoQCi4rbKbVrIu7FhQ-1" value="" style="html=1;points=[];perimeter=orthogonalPerimeter;outlineConnect=0;targetShapes=umlLifeline;portConstraint=eastwest;newEdgeStyle={&quot;edgeStyle&quot;:&quot;elbowEdgeStyle&quot;,&quot;elbow&quot;:&quot;vertical&quot;,&quot;curved&quot;:0,&quot;rounded&quot;:0};" vertex="1" parent="aM9ryv3xv72pqoxQDRHE-1">
          <mxGeometry x="85" y="190" width="10" height="60" as="geometry" />
        </mxCell>
        <mxCell id="DSFoQCi4rbKbVrIu7FhQ-2" value="" style="html=1;points=[];perimeter=orthogonalPerimeter;outlineConnect=0;targetShapes=umlLifeline;portConstraint=eastwest;newEdgeStyle={&quot;edgeStyle&quot;:&quot;elbowEdgeStyle&quot;,&quot;elbow&quot;:&quot;vertical&quot;,&quot;curved&quot;:0,&quot;rounded&quot;:0};" vertex="1" parent="aM9ryv3xv72pqoxQDRHE-1">
          <mxGeometry x="87" y="290" width="10" height="60" as="geometry" />
        </mxCell>
        <mxCell id="aM9ryv3xv72pqoxQDRHE-5" value="KeyWordServlet" style="shape=umlLifeline;perimeter=lifelinePerimeter;whiteSpace=wrap;html=1;container=0;dropTarget=0;collapsible=0;recursiveResize=0;outlineConnect=0;portConstraint=eastwest;newEdgeStyle={&quot;edgeStyle&quot;:&quot;elbowEdgeStyle&quot;,&quot;elbow&quot;:&quot;vertical&quot;,&quot;curved&quot;:0,&quot;rounded&quot;:0};" parent="1" vertex="1">
          <mxGeometry x="520" y="120" width="100" height="390" as="geometry" />
        </mxCell>
        <mxCell id="aM9ryv3xv72pqoxQDRHE-6" value="" style="html=1;points=[];perimeter=orthogonalPerimeter;outlineConnect=0;targetShapes=umlLifeline;portConstraint=eastwest;newEdgeStyle={&quot;edgeStyle&quot;:&quot;elbowEdgeStyle&quot;,&quot;elbow&quot;:&quot;vertical&quot;,&quot;curved&quot;:0,&quot;rounded&quot;:0};" parent="aM9ryv3xv72pqoxQDRHE-5" vertex="1">
          <mxGeometry x="45" y="110" width="10" height="270" as="geometry" />
        </mxCell>
        <mxCell id="0FgD7S2pJrIeSMjC2WOr-6" value="check post&lt;br&gt;parameter&lt;br&gt;&quot;keyword&quot;" style="html=1;align=left;spacingLeft=2;endArrow=block;rounded=0;edgeStyle=orthogonalEdgeStyle;curved=0;rounded=0;" parent="aM9ryv3xv72pqoxQDRHE-5" edge="1">
          <mxGeometry relative="1" as="geometry">
            <mxPoint x="45" y="135" as="sourcePoint" />
            <Array as="points">
              <mxPoint x="45" y="150" />
              <mxPoint x="75" y="150" />
              <mxPoint x="75" y="165" />
            </Array>
            <mxPoint x="50" y="165" as="targetPoint" />
          </mxGeometry>
        </mxCell>
        <mxCell id="0FgD7S2pJrIeSMjC2WOr-3" value="send request" style="endArrow=block;endFill=1;html=1;edgeStyle=orthogonalEdgeStyle;align=left;verticalAlign=top;rounded=0;exitX=0.495;exitY=0.27;exitDx=0;exitDy=0;exitPerimeter=0;" parent="1" source="0FgD7S2pJrIeSMjC2WOr-26" edge="1">
          <mxGeometry x="-0.375" y="20" relative="1" as="geometry">
            <mxPoint x="450" y="250" as="sourcePoint" />
            <mxPoint x="560" y="260" as="targetPoint" />
            <Array as="points">
              <mxPoint x="425" y="260" />
              <mxPoint x="560" y="260" />
            </Array>
            <mxPoint as="offset" />
          </mxGeometry>
        </mxCell>
        <mxCell id="0FgD7S2pJrIeSMjC2WOr-7" value="return parameter error" style="html=1;verticalAlign=bottom;endArrow=open;dashed=1;endSize=8;edgeStyle=elbowEdgeStyle;elbow=vertical;curved=0;rounded=0;" parent="1" edge="1">
          <mxGeometry x="-0.1752" relative="1" as="geometry">
            <mxPoint x="560" y="310" as="sourcePoint" />
            <mxPoint x="420" y="310" as="targetPoint" />
            <mxPoint as="offset" />
          </mxGeometry>
        </mxCell>
        <mxCell id="0FgD7S2pJrIeSMjC2WOr-8" value="AuctionDao" style="shape=umlLifeline;perimeter=lifelinePerimeter;whiteSpace=wrap;html=1;container=0;dropTarget=0;collapsible=0;recursiveResize=0;outlineConnect=0;portConstraint=eastwest;newEdgeStyle={&quot;edgeStyle&quot;:&quot;elbowEdgeStyle&quot;,&quot;elbow&quot;:&quot;vertical&quot;,&quot;curved&quot;:0,&quot;rounded&quot;:0};" parent="1" vertex="1">
          <mxGeometry x="680" y="120" width="100" height="370" as="geometry" />
        </mxCell>
        <mxCell id="0FgD7S2pJrIeSMjC2WOr-9" value="" style="html=1;points=[];perimeter=orthogonalPerimeter;outlineConnect=0;targetShapes=umlLifeline;portConstraint=eastwest;newEdgeStyle={&quot;edgeStyle&quot;:&quot;elbowEdgeStyle&quot;,&quot;elbow&quot;:&quot;vertical&quot;,&quot;curved&quot;:0,&quot;rounded&quot;:0};" parent="0FgD7S2pJrIeSMjC2WOr-8" vertex="1">
          <mxGeometry x="45" y="200" width="10" height="160" as="geometry" />
        </mxCell>
        <mxCell id="0FgD7S2pJrIeSMjC2WOr-18" value="ExecuteQuery()" style="html=1;align=left;spacingLeft=2;endArrow=block;rounded=0;edgeStyle=orthogonalEdgeStyle;curved=0;rounded=0;" parent="0FgD7S2pJrIeSMjC2WOr-8" edge="1">
          <mxGeometry relative="1" as="geometry">
            <mxPoint x="55" y="240" as="sourcePoint" />
            <Array as="points">
              <mxPoint x="85" y="270" />
            </Array>
            <mxPoint x="60" y="270" as="targetPoint" />
          </mxGeometry>
        </mxCell>
        <mxCell id="0FgD7S2pJrIeSMjC2WOr-21" value="Extract()" style="html=1;align=left;spacingLeft=2;endArrow=block;rounded=0;edgeStyle=orthogonalEdgeStyle;curved=0;rounded=0;" parent="0FgD7S2pJrIeSMjC2WOr-8" edge="1">
          <mxGeometry relative="1" as="geometry">
            <mxPoint x="55" y="300" as="sourcePoint" />
            <Array as="points">
              <mxPoint x="85" y="330" />
            </Array>
            <mxPoint x="60" y="330" as="targetPoint" />
          </mxGeometry>
        </mxCell>
        <mxCell id="0FgD7S2pJrIeSMjC2WOr-11" value="openAuctionWithKeyword(&lt;br&gt;keyword, time)" style="html=1;verticalAlign=bottom;endArrow=block;edgeStyle=elbowEdgeStyle;elbow=vertical;curved=0;rounded=0;" parent="1" target="0FgD7S2pJrIeSMjC2WOr-8" edge="1">
          <mxGeometry width="80" relative="1" as="geometry">
            <mxPoint x="570" y="340" as="sourcePoint" />
            <mxPoint x="650" y="320" as="targetPoint" />
            <Array as="points">
              <mxPoint x="620" y="340" />
            </Array>
          </mxGeometry>
        </mxCell>
        <mxCell id="0FgD7S2pJrIeSMjC2WOr-19" value="return with SQL error" style="html=1;verticalAlign=bottom;endArrow=open;dashed=1;endSize=8;edgeStyle=elbowEdgeStyle;elbow=vertical;curved=0;rounded=0;" parent="1" target="aM9ryv3xv72pqoxQDRHE-6" edge="1">
          <mxGeometry relative="1" as="geometry">
            <mxPoint x="730" y="400" as="sourcePoint" />
            <mxPoint x="650" y="400" as="targetPoint" />
          </mxGeometry>
        </mxCell>
        <mxCell id="0FgD7S2pJrIeSMjC2WOr-22" value="return list of auction" style="html=1;verticalAlign=bottom;endArrow=open;dashed=1;endSize=8;edgeStyle=elbowEdgeStyle;elbow=vertical;curved=0;rounded=0;" parent="1" target="aM9ryv3xv72pqoxQDRHE-5" edge="1">
          <mxGeometry relative="1" as="geometry">
            <mxPoint x="730" y="460" as="sourcePoint" />
            <mxPoint x="650" y="460" as="targetPoint" />
          </mxGeometry>
        </mxCell>
        <mxCell id="0FgD7S2pJrIeSMjC2WOr-25" value="return list of auction" style="html=1;verticalAlign=bottom;endArrow=open;dashed=1;endSize=8;edgeStyle=elbowEdgeStyle;elbow=vertical;curved=0;rounded=0;" parent="1" target="0FgD7S2pJrIeSMjC2WOr-27" edge="1">
          <mxGeometry relative="1" as="geometry">
            <mxPoint x="560" y="480" as="sourcePoint" />
            <mxPoint x="480" y="480" as="targetPoint" />
          </mxGeometry>
        </mxCell>
        <mxCell id="0FgD7S2pJrIeSMjC2WOr-26" value="Utils.js" style="shape=umlLifeline;perimeter=lifelinePerimeter;whiteSpace=wrap;html=1;container=0;dropTarget=0;collapsible=0;recursiveResize=0;outlineConnect=0;portConstraint=eastwest;newEdgeStyle={&quot;edgeStyle&quot;:&quot;elbowEdgeStyle&quot;,&quot;elbow&quot;:&quot;vertical&quot;,&quot;curved&quot;:0,&quot;rounded&quot;:0};" parent="1" vertex="1">
          <mxGeometry x="370" y="120" width="110" height="420" as="geometry" />
        </mxCell>
        <mxCell id="0FgD7S2pJrIeSMjC2WOr-27" value="" style="html=1;points=[];perimeter=orthogonalPerimeter;outlineConnect=0;targetShapes=umlLifeline;portConstraint=eastwest;newEdgeStyle={&quot;edgeStyle&quot;:&quot;elbowEdgeStyle&quot;,&quot;elbow&quot;:&quot;vertical&quot;,&quot;curved&quot;:0,&quot;rounded&quot;:0};" parent="0FgD7S2pJrIeSMjC2WOr-26" vertex="1">
          <mxGeometry x="45" y="70" width="10" height="330" as="geometry" />
        </mxCell>
        <mxCell id="0FgD7S2pJrIeSMjC2WOr-33" value="MakeCall" style="html=1;verticalAlign=bottom;endArrow=block;edgeStyle=elbowEdgeStyle;elbow=vertical;curved=0;rounded=0;" parent="1" target="0FgD7S2pJrIeSMjC2WOr-27" edge="1">
          <mxGeometry width="80" relative="1" as="geometry">
            <mxPoint x="240" y="250" as="sourcePoint" />
            <mxPoint x="320" y="250" as="targetPoint" />
          </mxGeometry>
        </mxCell>
        <mxCell id="0FgD7S2pJrIeSMjC2WOr-34" value="cback()" style="html=1;verticalAlign=bottom;endArrow=open;dashed=1;endSize=8;edgeStyle=elbowEdgeStyle;elbow=vertical;curved=0;rounded=0;" parent="1" target="aM9ryv3xv72pqoxQDRHE-1" edge="1">
          <mxGeometry relative="1" as="geometry">
            <mxPoint x="420" y="320" as="sourcePoint" />
            <mxPoint x="340" y="320" as="targetPoint" />
          </mxGeometry>
        </mxCell>
        <mxCell id="0FgD7S2pJrIeSMjC2WOr-35" value="return SQL error" style="html=1;verticalAlign=bottom;endArrow=open;dashed=1;endSize=8;edgeStyle=elbowEdgeStyle;elbow=vertical;curved=0;rounded=0;" parent="1" target="0FgD7S2pJrIeSMjC2WOr-27" edge="1">
          <mxGeometry relative="1" as="geometry">
            <mxPoint x="570" y="410" as="sourcePoint" />
            <mxPoint x="490" y="410" as="targetPoint" />
          </mxGeometry>
        </mxCell>
        <mxCell id="0FgD7S2pJrIeSMjC2WOr-39" value="cback(req)" style="html=1;verticalAlign=bottom;endArrow=open;dashed=1;endSize=8;edgeStyle=elbowEdgeStyle;elbow=vertical;curved=0;rounded=0;" parent="1" target="aM9ryv3xv72pqoxQDRHE-1" edge="1">
          <mxGeometry relative="1" as="geometry">
            <mxPoint x="420" y="490" as="sourcePoint" />
            <mxPoint x="340" y="490" as="targetPoint" />
          </mxGeometry>
        </mxCell>
        <mxCell id="DSFoQCi4rbKbVrIu7FhQ-3" value="" style="html=1;verticalAlign=bottom;endArrow=open;dashed=1;endSize=8;edgeStyle=elbowEdgeStyle;elbow=vertical;curved=0;rounded=0;" edge="1" parent="1" target="DSFoQCi4rbKbVrIu7FhQ-2">
          <mxGeometry relative="1" as="geometry">
            <mxPoint x="425" y="420" as="sourcePoint" />
            <mxPoint x="230" y="420" as="targetPoint" />
          </mxGeometry>
        </mxCell>
        <mxCell id="DSFoQCi4rbKbVrIu7FhQ-5" value="cback()" style="edgeLabel;html=1;align=center;verticalAlign=middle;resizable=0;points=[];" vertex="1" connectable="0" parent="DSFoQCi4rbKbVrIu7FhQ-3">
          <mxGeometry x="-0.3085" y="-2" relative="1" as="geometry">
            <mxPoint x="-30" y="-8" as="offset" />
          </mxGeometry>
        </mxCell>
        <mxCell id="DSFoQCi4rbKbVrIu7FhQ-7" value="error_prompt.show()" style="html=1;align=left;spacingLeft=2;endArrow=block;rounded=0;edgeStyle=orthogonalEdgeStyle;curved=0;rounded=0;" edge="1" parent="1">
          <mxGeometry relative="1" as="geometry">
            <mxPoint x="230" y="430" as="sourcePoint" />
            <Array as="points">
              <mxPoint x="260" y="460" />
            </Array>
            <mxPoint x="235" y="460" as="targetPoint" />
          </mxGeometry>
        </mxCell>
        <mxCell id="DSFoQCi4rbKbVrIu7FhQ-8" value="error_prompt.show()" style="html=1;align=left;spacingLeft=2;endArrow=block;rounded=0;edgeStyle=orthogonalEdgeStyle;curved=0;rounded=0;" edge="1" parent="1">
          <mxGeometry relative="1" as="geometry">
            <mxPoint x="230" y="330" as="sourcePoint" />
            <Array as="points">
              <mxPoint x="260" y="360" />
            </Array>
            <mxPoint x="235" y="360" as="targetPoint" />
          </mxGeometry>
        </mxCell>
      </root>
    </mxGraphModel>
  </diagram>
</mxfile>
